HIERARCHY
ROOT Hips
{
	OFFSET 0.000000 8.830580 0.000000
	CHANNELS 6 Xposition Yposition Zposition Zrotation Yrotation Xrotation 
	JOINT Spine
	{
		OFFSET 0.000000 0.010000 0.000000
		CHANNELS 3 Zrotation Yrotation Xrotation
		JOINT Spine1
		{
			OFFSET 0.000000 2.459130 0.000000
			CHANNELS 3 Zrotation Yrotation Xrotation
			JOINT Neck
			{
				OFFSET 0.000000 2.484630 0.000000
				CHANNELS 3 Zrotation Yrotation Xrotation
				JOINT Head_virtual
				{
					OFFSET 0.000000 0.000000 0.000000
					CHANNELS 3 Zrotation Yrotation Xrotation
					JOINT Head
					{
						OFFSET 0.000000 0.927525 0.000000
						CHANNELS 3 Zrotation Yrotation Xrotation
						End Site
						{
							OFFSET 0.000000 0.000000 0.000000
						}
					}
				}
				JOINT LeftUpArm_virtual
				{
					OFFSET 0.000000 0.000000 0.000000
					CHANNELS 3 Zrotation Yrotation Xrotation
					JOINT LeftUpArm
					{
						OFFSET 1.248820 0.000000 0.000000
						CHANNELS 3 Zrotation Yrotation Xrotation
						JOINT LeftForeArm
						{
							OFFSET 2.597580 0.000000 0.000000
							CHANNELS 3 Zrotation Yrotation Xrotation
							JOINT LeftHand
							{
								OFFSET 2.455420 0.000000 0.000000
								CHANNELS 3 Zrotation Yrotation Xrotation
								End Site
								{
									OFFSET 0.000000 0.000000 0.000000
								}
							}
						}
					}
				}
				JOINT RightUpArm_virtual
				{
					OFFSET -0.000000 -0.000000 -0.000000
					CHANNELS 3 Zrotation Yrotation Xrotation
					JOINT RightUpArm
					{
						OFFSET -1.248820 -0.000000 -0.000000
						CHANNELS 3 Zrotation Yrotation Xrotation
						JOINT RightForeArm
						{
							OFFSET -2.597580 -0.000000 -0.000000
							CHANNELS 3 Zrotation Yrotation Xrotation
							JOINT RightHand
							{
								OFFSET -2.455420 -0.000000 -0.000000
								CHANNELS 3 Zrotation Yrotation Xrotation
								End Site
								{
									OFFSET 0.000000 0.000000 0.000000
								}
							}
						}
					}
				}
			}
		}
	}
	JOINT LeftUpLeg
	{
		OFFSET 1.271939 0.000000 0.000000
		CHANNELS 3 Zrotation Yrotation Xrotation
		JOINT LeftLowLeg
		{
			OFFSET 0.000000 -4.342910 0.000000
			CHANNELS 3 Zrotation Yrotation Xrotation
			JOINT LeftFoot
			{
				OFFSET 0.000000 -4.487670 0.000000
				CHANNELS 3 Zrotation Yrotation Xrotation
				JOINT LeftToeBase
				{
					OFFSET 0.000000 0.000000 1.515070
					CHANNELS 3 Zrotation Yrotation Xrotation
					End Site
					{
						OFFSET 0.000000 0.000000 0.000000
					}
				}
			}
		}
	}
	JOINT RightUpLeg
	{
		OFFSET -1.271939 0.000000 0.000000
		CHANNELS 3 Zrotation Yrotation Xrotation
		JOINT RightLowLeg
		{
			OFFSET 0.000000 -4.342910 0.000000
			CHANNELS 3 Zrotation Yrotation Xrotation
			JOINT RightFoot
			{
				OFFSET 0.000000 -4.487670 0.000000
				CHANNELS 3 Zrotation Yrotation Xrotation
				JOINT RightToeBase
				{
					OFFSET 0.000000 0.000000 1.515070
					CHANNELS 3 Zrotation Yrotation Xrotation
					End Site
					{
						OFFSET 0.000000 0.000000 0.000000
					}
				}
			}
		}
	}
}
MOTION
Frames: 7
Frame Time: 0.041667
-23.363360 8.295196 54.453970 1.197062 47.088439 9.468556 -3.728698 11.228657 -17.863832 1.193664 3.469612 7.545090 0.000000 0.000000 0.000000 32.641336 -1.999202 7.926259 -0.664140 13.884741 -93.268972 -8.463580 10.628900 -9.515015 -14.839400 -12.069700 -42.827202 0.000000 -62.876801 0.000000 27.371300 15.360300 -8.667030 22.626301 -0.690748 0.342987 34.902000 44.015202 38.250000 -180.000000 52.466003 -180.000000 -36.367001 16.065201 21.008400 -11.920673 -15.803401 -0.518562 0.000000 0.000000 16.963600 11.793029 3.516352 -0.708735 0.000000 0.000000 -35.262800 -10.780617 17.143577 -35.461983 0.000000 0.000000 17.042801 47.539392 10.094151 -3.891730 0.000000 0.000000 -18.709870 
-23.261870 8.261452 54.584426 1.839553 47.564132 9.696787 -4.380520 11.370131 -18.246429 1.679598 4.076079 8.287810 0.000000 0.000000 0.000000 33.687973 -2.491601 7.120084 -0.248856 14.513772 -92.833267 -8.791760 10.290200 -9.760986 -16.651600 -11.018900 -42.438702 0.000000 -64.814301 0.000000 27.016600 15.272700 -8.405610 22.809200 -0.609511 0.351990 34.990299 42.900799 39.477997 -180.000000 52.705002 -180.000000 -35.727001 17.396700 22.358801 -12.422386 -16.001783 0.722525 0.000000 0.000000 17.255100 11.512947 3.260849 -1.310422 0.000000 0.000000 -35.252100 -10.359567 17.224546 -36.654854 0.000000 0.000000 21.999599 44.773860 9.798680 -3.637942 0.000000 0.000000 -20.144770 
-23.144807 8.231054 54.721841 2.276404 48.093097 9.479195 -4.768960 11.479610 -18.461729 2.069807 4.465414 8.968868 0.000000 0.000000 0.000000 34.523499 -2.836643 6.604363 0.014369 14.991688 -92.428143 -9.061250 10.252200 -9.537994 -18.580000 -9.995170 -42.612999 0.000000 -66.759201 0.000000 25.648800 14.925700 -8.536530 22.700701 -0.904315 0.131989 35.897701 42.091801 41.593994 -180.000000 53.188004 -180.000000 -35.934200 18.257601 23.452900 -12.896997 -15.902468 2.331640 0.000000 0.000000 17.577700 11.302360 2.884655 -1.730994 0.000000 0.000000 -35.513599 -9.181007 16.699999 -36.735055 0.000000 0.000000 26.380301 42.175750 10.163278 -3.018202 0.000000 0.000000 -20.840770 
-23.016937 8.209237 54.867757 2.157629 48.740500 8.879950 -4.710673 11.552428 -18.653581 2.180870 4.482464 9.239508 0.000000 0.000000 0.000000 35.193347 -2.972857 6.928218 -0.002311 15.210254 -92.391964 -9.476800 10.366600 -9.234009 -19.915501 -8.672410 -42.689201 0.000000 -68.378899 0.000000 24.501301 14.617400 -8.387190 22.738701 -1.032310 0.049988 36.601601 41.280300 43.380005 180.000000 53.605003 180.000000 -35.615700 18.586599 23.499701 -12.821435 -14.969927 4.009705 0.000000 0.000000 17.684401 11.313693 1.871292 -1.989961 0.000000 0.000000 -36.405100 -7.925409 16.811175 -35.867530 0.000000 0.000000 28.845400 36.576271 10.276968 -2.467207 0.000000 0.000000 -22.193230 
-22.888505 8.194949 55.018683 1.327239 49.550690 8.134109 -4.391062 11.551142 -19.067115 2.274619 4.232857 9.153271 0.000000 0.000000 0.000000 35.706240 -3.024230 7.466396 -0.134771 15.308962 -92.435471 -10.113700 11.171600 -8.710999 -20.757799 -8.241770 -43.082298 0.000000 -69.471703 0.000000 22.917601 14.440800 -7.754970 22.862200 -1.151110 0.105011 36.848900 40.811199 44.528992 180.000000 53.807999 180.000000 -34.859001 18.531300 23.052200 -12.117704 -14.326241 5.107255 0.000000 0.000000 18.203800 11.385450 1.016119 -2.274158 0.000000 0.000000 -37.359200 -7.351152 18.784457 -34.904986 0.000000 0.000000 28.908800 36.496525 10.831254 -0.301064 0.000000 0.000000 -21.810040 
-22.758675 8.185201 55.172202 0.274998 50.640618 7.552541 -4.052982 11.360834 -19.775633 2.334016 3.789543 8.831945 0.000000 0.000000 0.000000 35.882028 -2.943317 8.175732 0.048509 15.164105 -92.229384 -10.496700 11.654400 -8.888000 -21.480801 -7.247080 -43.084000 0.000000 -70.104599 0.000000 21.537500 14.359800 -7.277520 22.794701 -1.208900 -0.394012 37.452801 40.322102 45.898987 180.000000 53.996002 180.000000 -34.557999 18.799200 22.728001 -11.316847 -14.801507 5.543417 0.000000 0.000000 19.498600 10.982443 0.888564 -2.368886 0.000000 0.000000 -38.362900 -7.719617 22.432692 -34.454066 0.000000 0.000000 28.403601 38.409196 9.145327 3.192321 0.000000 0.000000 -21.661860 
-22.621563 8.184486 55.330931 -0.688989 51.862313 6.833485 -3.794185 10.973154 -20.373857 2.355126 3.250009 8.479488 0.000000 0.000000 0.000000 35.970874 -2.877240 9.034596 0.071284 14.872314 -91.914706 -10.697800 12.258700 -8.934998 -21.735100 -6.510730 -43.284401 0.000000 -70.070999 0.000000 20.712601 14.234500 -7.504730 22.732201 -1.239930 -1.009003 37.832100 40.128101 46.697998 180.000000 53.972000 180.000000 -33.887001 18.879801 23.314699 -10.306440 -14.392266 6.222900 0.000000 0.000000 20.452499 10.735293 -0.377514 -2.001443 0.000000 0.000000 -40.143600 -8.014390 26.154557 -34.099646 0.000000 0.000000 29.016199 37.421661 5.300363 3.094746 0.000000 0.000000 -21.958820 
